<svg width="1024" height="1024" viewBox="0 0 1024 1024" fill="none" xmlns="http://www.w3.org/2000/svg">
<path d="M135.246 540.444H173.888C177.744 358.024 329.911 195.02 521.661 199.631C586.983 201.201 643.793 238.768 705.208 256V274.963L666.567 293.926L782.491 303.407V180.148H753.51V246.519C486.482 88.7481 135.481 192.53 135.246 540.444Z" fill="#F2FFF3"/>
<path d="M492.678 293.926C481.683 361.642 399.069 360.103 396.648 436.148C393.088 548.013 516.993 522.393 548.166 600.413C572.711 661.842 472.605 660.65 454.037 597.333H376.754C387.109 664.834 420.985 706.388 492.678 711.111V758.518H531.32V711.111C610.182 702.485 666.579 609.978 604.414 544.146C569.238 506.896 499.108 502.785 475.654 454.262C444.114 389.015 537.5 408.71 560.301 455.111H627.924L531.32 293.926H492.678Z" fill="#FBFFFF"/>
<path d="M299.471 786.963V777.482C332.411 774.992 346.818 771.046 357.434 739.556H222.188C222.188 786.873 206.058 854.454 260.83 872.296V805.926C516.951 997.594 876.398 831.692 879.094 512C815.539 532.503 814.288 656.36 775.73 709.501C642.862 892.62 478.326 850.844 299.471 786.963Z" fill="#F5FFED"/>
</svg>
